<?xml version="1.0" encoding="UTF-8"?>
<svg width="30px" height="30px" viewBox="0 0 30 30" version="1.1" xmlns="http://www.w3.org/2000/svg" xmlns:xlink="http://www.w3.org/1999/xlink">
    <!-- Generator: Sketch 52.3 (67297) - http://www.bohemiancoding.com/sketch -->
    <title>排序</title>
    <desc>Created with Sketch.</desc>
    <g id="Design" stroke="none" stroke-width="1" fill="none" fill-rule="evenodd" opacity="0.9">
        <g id="03-页面布局-3-模块-翻页" transform="translate(-1010.000000, -1830.000000)">
            <g id="底部悬浮操作按钮-" transform="translate(570.000000, 1806.000000)">
                <g id="排序" transform="translate(440.000000, 24.000000)">
                    <circle id="Oval" fill="#0062C4" fill-rule="nonzero" cx="15" cy="15" r="15"></circle>
                    <path d="M11,19 L13,19 L9.5,24 L6,19 L8,19 L8,6.5 C8,5.67157288 8.67157288,5 9.5,5 C10.3284271,5 11,5.67157288 11,6.5 L11,19 Z M14,7 L24,7 C24.5522847,7 25,7.44771525 25,8 C25,8.55228475 24.5522847,9 24,9 L14,9 C13.4477153,9 13,8.55228475 13,8 C13,7.44771525 13.4477153,7 14,7 Z M14,12 L22,12 C22.5522847,12 23,12.4477153 23,13 C23,13.5522847 22.5522847,14 22,14 L14,14 C13.4477153,14 13,13.5522847 13,13 C13,12.4477153 13.4477153,12 14,12 Z M14,16 L20,16 C20.5522847,16 21,16.4477153 21,17 C21,17.5522847 20.5522847,18 20,18 L14,18 C13.4477153,18 13,17.5522847 13,17 C13,16.4477153 13.4477153,16 14,16 Z M14,21 L18,21 C18.5522847,21 19,21.4477153 19,22 C19,22.5522847 18.5522847,23 18,23 L14,23 C13.4477153,23 13,22.5522847 13,22 C13,21.4477153 13.4477153,21 14,21 Z" id="Combined-Shape" fill="#A3D0FD" transform="translate(15.500000, 14.500000) scale(1, -1) translate(-15.500000, -14.500000) "></path>
                </g>
            </g>
        </g>
    </g>
</svg>